<?xml version="1.0" encoding="utf-8"?>
<!-- Generator: Adobe Illustrator 16.0.0, SVG Export Plug-In . SVG Version: 6.00 Build 0)  -->
<!DOCTYPE svg PUBLIC "-//W3C//DTD SVG 1.1//EN" "http://www.w3.org/Graphics/SVG/1.1/DTD/svg11.dtd">
<svg version="1.1" id="Layer_1" xmlns="http://www.w3.org/2000/svg" xmlns:xlink="http://www.w3.org/1999/xlink" x="0px" y="0px"
	 width="2048px" height="1250px" viewBox="120.5 142 2048 1250" enable-background="new 120.5 142 2048 1250" xml:space="preserve">
<g>

	<path fill="#FC9A18" d="M608.507,193.543h286.165v117.032c64.891-54.793,123.651-92.873,176.385-114.337
		c52.636-21.419,106.545-32.101,161.73-32.101c113.012,0,208.973,39.548,287.829,118.65c66.309,67.191,99.438,166.58,99.438,298.17
		v754.982h-283.025v-500.28c0-136.344-6.126-226.863-18.33-271.658c-12.2-44.745-33.423-78.807-63.759-102.231
		c-30.34-23.429-67.832-35.14-112.43-35.14c-57.877,0-107.524,19.407-148.985,58.222c-41.51,38.815-70.279,92.48-86.306,160.995
		c-8.38,35.63-12.547,112.917-12.547,231.765v458.33H608.507V193.543z"/>
</g>
</svg>
