<?xml version="1.0" standalone="no"?>
<!DOCTYPE svg PUBLIC "-//W3C//DTD SVG 20010904//EN"
 "http://www.w3.org/TR/2001/REC-SVG-20010904/DTD/svg10.dtd">
<svg version="1.0" xmlns="http://www.w3.org/2000/svg"
 width="2048.000000pt" height="2048.000000pt" viewBox="0 0 2048.000000 2048.000000"
 preserveAspectRatio="xMidYMid meet">
<metadata>
Created by potrace 1.11, written by Peter Selinger 2001-2013
</metadata>
<g transform="translate(0.000000,2048.000000) scale(0.100000,-0.100000)"
fill="#000000" stroke="none">
<path d="M10840 16264 c-494 -44 -864 -129 -1304 -300 -258 -101 -701 -343
-1001 -549 -173 -118 -479 -347 -645 -484 l-135 -111 -5 578 -5 577 -1432 3
-1433 2 0 -5715 0 -5715 1435 0 1435 0 0 2668 c0 2641 4 3011 35 3502 25 396
52 591 111 825 298 1172 1030 1933 1994 2070 242 35 519 29 750 -16 508 -99
911 -399 1154 -861 179 -339 257 -682 310 -1353 51 -639 56 -1009 56 -4067 l0
-2768 1420 0 1420 0 -3 3987 c-3 4250 -1 4014 -47 4388 -110 899 -428 1627
-939 2148 -331 339 -681 593 -1096 797 -415 204 -805 317 -1295 376 -129 15
-670 28 -780 18z"/>
</g>
</svg>
